<?xml version="1.0" encoding="utf-8"?>
<!-- Generator: Adobe Illustrator 28.0.0, SVG Export Plug-In . SVG Version: 6.00 Build 0)  -->
<svg version="1.1" id="Layer_1" xmlns="http://www.w3.org/2000/svg" xmlns:xlink="http://www.w3.org/1999/xlink" x="0px" y="0px"
	 viewBox="0 0 448 213" style="fill:#ffffff" xml:space="preserve">
<path d="M122.67,183.5c0,17.52-11.68,29.2-32.11,29.2s-32.11-11.68-32.11-29.2V98.83h-2.92c0,0-11.68,14.6-29.19,14.6
	c-14.6,0-26.28-11.68-26.28-26.27c0-11.68,11.68-23.36,11.68-23.36l46.71-48.17c0,0,11.68-13.14,32.11-13.14
	s32.11,11.68,32.11,29.19V183.5z"/>
<path d="M232.14,148.46v2.92h55.47c20.44,0,32.11,11.68,32.11,29.2c0,17.22-11.68,29.19-32.11,29.19H179.59
	c-20.44,0-35.03-14.6-35.03-32.11c0-72.99,108.02-78.83,108.02-106.56c0-8.76-7.3-16.06-23.36-16.06
	c-21.9,0-24.82,20.44-48.17,20.44c-21.9,0-32.11-9.93-32.11-25.98c0-23.36,29.19-49.92,80.29-49.92c58.39,0,90.5,32.11,90.5,71.53
	C319.73,122.19,264.26,128.03,232.14,148.46z"/>
<path d="M448.17,183.5c0,17.52-11.68,29.2-32.11,29.2c-20.44,0-32.11-11.68-32.11-29.2V98.83h-2.92c0,0-11.68,14.6-29.19,14.6
	c-14.6,0-26.28-11.68-26.28-26.27c0-11.68,11.68-23.36,11.68-23.36l46.71-48.17c0,0,11.68-13.14,32.11-13.14
	c20.44,0,32.11,11.68,32.11,29.19V183.5z"/>
</svg>
