<svg fill="#fff" viewBox="0 0 448 213" xmlns="http://www.w3.org/2000/svg"><path d="m122.67 183.5c0 17.52-11.68 29.2-32.11 29.2s-32.11-11.68-32.11-29.2v-84.67h-2.92s-11.68 14.6-29.19 14.6c-14.6 0-26.28-11.68-26.28-26.27 0-11.68 11.68-23.36 11.68-23.36l46.71-48.17s11.68-13.14 32.11-13.14 32.11 11.68 32.11 29.19z"/><path d="m232.14 148.46v2.92h55.47c20.44 0 32.11 11.68 32.11 29.2 0 17.22-11.68 29.19-32.11 29.19h-108.02c-20.44 0-35.03-14.6-35.03-32.11 0-72.99 108.02-78.83 108.02-106.56 0-8.76-7.3-16.06-23.36-16.06-21.9 0-24.82 20.44-48.17 20.44-21.9 0-32.11-9.93-32.11-25.98 0-23.36 29.19-49.92 80.29-49.92 58.39 0 90.5 32.11 90.5 71.53 0 51.08-55.47 56.92-87.59 77.35z"/><path d="m448.17 183.5c0 17.52-11.68 29.2-32.11 29.2-20.44 0-32.11-11.68-32.11-29.2v-84.67h-2.92s-11.68 14.6-29.19 14.6c-14.6 0-26.28-11.68-26.28-26.27 0-11.68 11.68-23.36 11.68-23.36l46.71-48.17s11.68-13.14 32.11-13.14c20.44 0 32.11 11.68 32.11 29.19z"/></svg>