<?xml version="1.0" standalone="no"?>
<!DOCTYPE svg PUBLIC "-//W3C//DTD SVG 20010904//EN"
 "http://www.w3.org/TR/2001/REC-SVG-20010904/DTD/svg10.dtd">
<svg version="1.0" xmlns="http://www.w3.org/2000/svg"
 width="3443.000000pt" height="764.000000pt" viewBox="0 0 3443.000000 764.000000"
 preserveAspectRatio="xMidYMid meet">

<g transform="translate(0.000000,764.000000) scale(0.100000,-0.100000)"
fill="#000000" stroke="none">
<path d="M10 3820 l0 -3810 7020 0 7020 0 0 3810 0 3810 -7020 0 -7020 0 0
-3810z m9390 2240 c0 -6 28 -10 65 -10 37 0 65 -4 65 -10 0 -5 18 -10 40 -10
22 0 40 -4 40 -10 0 -5 16 -10 35 -10 24 0 35 -5 35 -15 0 -10 10 -15 30 -15
17 0 30 -4 30 -10 0 -5 16 -10 35 -10 19 0 35 -4 35 -10 0 -5 9 -10 20 -10 11
0 20 -4 20 -10 0 -5 9 -10 20 -10 11 0 20 -4 20 -10 0 -5 9 -10 20 -10 11 0
20 -4 20 -10 0 -5 11 -10 25 -10 14 0 25 -4 25 -10 0 -5 7 -10 16 -10 18 0 44
-23 44 -39 0 -6 8 -11 18 -11 10 0 24 -9 32 -20 8 -11 23 -20 33 -20 10 0 36
-18 57 -40 21 -22 44 -40 50 -40 14 0 40 -25 40 -39 0 -6 5 -11 10 -11 16 0
120 -108 120 -125 0 -8 5 -15 10 -15 6 0 10 -7 10 -15 0 -8 5 -15 10 -15 15 0
60 -47 60 -62 0 -8 9 -20 20 -28 11 -8 20 -22 20 -32 0 -10 5 -18 10 -18 6 0
10 -10 10 -23 0 -12 9 -29 20 -37 11 -8 20 -22 20 -32 0 -10 7 -18 15 -18 8 0
15 -9 15 -20 0 -11 5 -20 10 -20 6 0 10 -11 10 -25 0 -14 5 -25 10 -25 6 0 10
-13 10 -30 0 -16 5 -30 10 -30 6 0 10 -9 10 -20 0 -11 5 -20 10 -20 6 0 10
-16 10 -35 0 -19 5 -35 10 -35 6 0 10 -18 10 -40 0 -22 5 -40 10 -40 6 0 10
-25 10 -55 0 -40 4 -55 14 -55 25 0 36 -251 21 -467 -6 -78 -11 -103 -21 -103
-10 0 -14 -15 -14 -55 0 -30 -4 -55 -10 -55 -5 0 -10 -13 -10 -30 0 -16 -4
-30 -10 -30 -5 0 -10 -13 -10 -30 0 -16 -4 -30 -10 -30 -5 0 -10 -16 -10 -35
0 -19 -4 -35 -10 -35 -5 0 -10 -9 -10 -20 0 -11 -4 -20 -10 -20 -5 0 -10 -13
-10 -30 0 -16 -4 -30 -10 -30 -5 0 -10 -11 -10 -25 0 -16 -6 -25 -15 -25 -8 0
-15 -9 -15 -20 0 -11 -4 -20 -10 -20 -5 0 -10 -8 -10 -18 0 -10 -9 -24 -20
-32 -11 -8 -20 -24 -20 -35 0 -11 -9 -27 -20 -35 -11 -8 -20 -20 -20 -28 0
-15 -45 -62 -60 -62 -5 0 -10 -9 -10 -20 0 -11 -4 -20 -10 -20 -5 0 -10 -5
-10 -10 0 -11 -105 -120 -115 -120 -10 0 -55 -49 -55 -60 0 -5 -7 -10 -16 -10
-8 0 -33 -18 -54 -40 -21 -22 -47 -40 -57 -40 -10 0 -25 -9 -33 -20 -8 -11
-22 -20 -32 -20 -10 0 -18 -4 -18 -10 0 -5 -9 -10 -20 -10 -11 0 -20 -5 -20
-11 0 -17 -27 -39 -49 -39 -12 0 -21 -4 -21 -10 0 -5 -9 -10 -20 -10 -11 0
-20 -4 -20 -10 0 -5 -13 -10 -30 -10 -16 0 -30 -4 -30 -10 0 -5 -11 -10 -25
-10 -14 0 -25 -4 -25 -10 0 -5 -13 -10 -30 -10 -16 0 -30 -4 -30 -10 0 -5 -13
-10 -30 -10 -16 0 -30 -4 -30 -10 0 -5 -20 -10 -45 -10 -33 0 -45 -4 -45 -15
0 -12 -14 -15 -65 -15 -37 0 -65 -4 -65 -10 0 -6 -85 -10 -235 -10 -150 0
-235 4 -235 10 0 6 -22 10 -50 10 -38 0 -50 4 -50 15 0 11 -12 15 -45 15 -25
0 -45 5 -45 10 0 6 -13 10 -30 10 -16 0 -30 5 -30 10 0 6 -16 10 -35 10 -19 0
-35 5 -35 10 0 6 -13 10 -30 10 -16 0 -30 5 -30 10 0 6 -9 10 -20 10 -11 0
-20 5 -20 10 0 6 -11 10 -25 10 -14 0 -25 5 -25 10 0 6 -9 10 -20 10 -11 0
-20 5 -20 10 0 6 -9 10 -20 10 -11 0 -20 5 -20 11 0 16 -26 39 -44 39 -9 0
-16 5 -16 10 0 6 -9 10 -21 10 -12 0 -34 14 -49 30 -15 17 -33 30 -39 30 -15
0 -61 45 -61 60 0 5 -5 10 -10 10 -6 0 -42 32 -80 70 -38 39 -74 70 -80 70 -5
0 -10 5 -10 11 0 6 -13 24 -30 39 -16 15 -30 33 -30 40 0 7 -13 25 -30 40 -16
15 -30 37 -30 49 0 12 -4 21 -10 21 -5 0 -10 9 -10 20 0 11 -5 20 -11 20 -16
0 -39 26 -39 44 0 9 -4 16 -10 16 -5 0 -10 9 -10 20 0 11 -4 20 -10 20 -5 0
-10 16 -10 35 0 19 -4 35 -10 35 -5 0 -10 9 -10 20 0 11 -4 20 -10 20 -5 0
-10 14 -10 30 0 17 -4 30 -10 30 -5 0 -10 11 -10 25 0 14 -4 25 -10 25 -5 0
-10 18 -10 40 0 29 -4 40 -15 40 -11 0 -15 12 -15 45 0 25 -4 45 -10 45 -6 0
-10 27 -10 60 0 33 -4 60 -10 60 -6 0 -10 78 -10 215 0 137 4 215 10 215 6 0
10 28 10 65 0 37 4 65 10 65 6 0 10 18 10 40 0 29 4 40 15 40 10 0 15 11 15
35 0 19 5 35 10 35 6 0 10 14 10 30 0 17 5 30 10 30 6 0 10 9 10 20 0 11 5 20
10 20 6 0 10 16 10 35 0 19 5 35 10 35 6 0 10 9 10 20 0 11 5 20 10 20 6 0 10
8 10 18 0 10 9 24 20 32 11 8 20 22 20 32 0 10 7 18 15 18 9 0 15 9 15 23 0
12 9 29 20 37 11 8 20 21 20 28 0 8 14 27 30 42 17 15 30 35 30 44 0 16 42 66
55 66 7 0 115 108 115 115 0 9 27 35 37 35 5 0 15 9 23 20 8 11 21 20 28 20 8
0 27 14 42 30 15 17 35 30 44 30 9 0 16 5 16 10 0 6 7 10 15 10 8 0 15 7 15
15 0 8 9 15 20 15 11 0 20 5 20 10 0 6 8 10 18 10 10 0 24 9 32 20 8 11 22 20
32 20 10 0 18 5 18 10 0 6 16 10 35 10 19 0 35 5 35 10 0 6 9 10 20 10 11 0
20 5 20 10 0 6 9 10 20 10 11 0 20 5 20 10 0 6 16 10 35 10 24 0 35 5 35 15 0
11 11 15 40 15 22 0 40 5 40 10 0 6 20 10 45 10 25 0 45 5 45 10 0 6 28 10 65
10 37 0 65 4 65 10 0 6 73 10 200 10 127 0 200 -4 200 -10z m-2170 -1605 l0
-1575 -365 0 -365 0 0 1255 0 1255 -1235 0 -1235 0 0 -470 0 -470 75 0 c43 0
75 -4 75 -10 0 -6 32 -10 75 -10 43 0 75 -4 75 -10 0 -5 25 -10 55 -10 30 0
55 -4 55 -10 0 -5 18 -10 40 -10 22 0 40 -4 40 -10 0 -5 16 -10 35 -10 19 0
35 -4 35 -10 0 -5 14 -10 30 -10 17 0 30 -4 30 -10 0 -5 9 -10 20 -10 11 0 20
-4 20 -10 0 -5 9 -10 20 -10 11 0 20 -7 20 -15 0 -9 9 -15 25 -15 14 0 25 -4
25 -10 0 -5 8 -10 18 -10 10 0 24 -9 32 -20 8 -11 21 -20 30 -20 9 0 22 -9 30
-20 8 -11 23 -20 33 -20 16 0 67 -41 67 -55 0 -7 68 -75 75 -75 13 0 55 -50
55 -65 0 -8 5 -15 10 -15 6 0 10 -6 10 -13 0 -7 9 -19 20 -27 11 -8 20 -22 20
-32 0 -10 5 -18 10 -18 6 0 10 -9 10 -20 0 -11 5 -20 10 -20 6 0 10 -9 10 -20
0 -11 7 -20 15 -20 9 0 15 -9 15 -25 0 -14 5 -25 10 -25 6 0 10 -9 10 -20 0
-11 5 -20 10 -20 6 0 10 -13 10 -30 0 -16 5 -30 10 -30 6 0 10 -16 10 -35 0
-19 5 -35 10 -35 6 0 10 -13 10 -30 0 -16 5 -30 10 -30 6 0 10 -20 10 -45 0
-25 5 -45 10 -45 6 0 10 -30 10 -70 0 -40 4 -70 10 -70 6 0 10 -75 10 -205 0
-130 -4 -205 -10 -205 -6 0 -10 -32 -10 -75 0 -43 -4 -75 -10 -75 -5 0 -10
-18 -10 -40 0 -22 -4 -40 -10 -40 -5 0 -10 -20 -10 -45 0 -25 -4 -45 -10 -45
-5 0 -10 -13 -10 -30 0 -16 -4 -30 -10 -30 -5 0 -10 -9 -10 -20 0 -11 -4 -20
-10 -20 -5 0 -10 -16 -10 -35 0 -19 -4 -35 -10 -35 -5 0 -10 -9 -10 -20 0 -11
-7 -20 -15 -20 -8 0 -15 -9 -15 -20 0 -11 -4 -20 -10 -20 -5 0 -10 -8 -10 -18
0 -10 -9 -24 -20 -32 -11 -8 -20 -24 -20 -35 0 -11 -9 -27 -20 -35 -11 -8 -20
-20 -20 -28 0 -13 -44 -62 -55 -62 -9 0 -35 -27 -35 -37 0 -5 -9 -15 -20 -23
-11 -8 -20 -22 -20 -32 0 -11 -7 -18 -18 -18 -10 0 -24 -9 -32 -20 -8 -11 -18
-20 -23 -20 -9 0 -57 -46 -57 -55 0 -12 -28 -35 -42 -35 -8 0 -20 -9 -28 -20
-8 -11 -24 -20 -35 -20 -11 0 -27 -9 -35 -20 -8 -11 -22 -20 -32 -20 -10 0
-18 -4 -18 -10 0 -5 -7 -10 -16 -10 -18 0 -44 -23 -44 -39 0 -6 -11 -11 -25
-11 -14 0 -25 -4 -25 -10 0 -5 -13 -10 -30 -10 -16 0 -30 -4 -30 -10 0 -5 -9
-10 -20 -10 -11 0 -20 -4 -20 -10 0 -5 -11 -10 -25 -10 -14 0 -25 -4 -25 -10
0 -5 -13 -10 -30 -10 -16 0 -30 -4 -30 -10 0 -5 -13 -10 -30 -10 -16 0 -30 -4
-30 -10 0 -5 -20 -10 -45 -10 -25 0 -45 -4 -45 -10 0 -5 -18 -10 -40 -10 -29
0 -40 -4 -40 -15 0 -12 -13 -15 -55 -15 -30 0 -55 -4 -55 -10 0 -6 -35 -10
-85 -10 -50 0 -85 -4 -85 -10 0 -6 -85 -10 -235 -10 -150 0 -235 -4 -235 -10
0 -6 -32 -10 -75 -10 l-75 0 0 350 0 350 265 0 c170 0 265 4 265 10 0 6 40 10
100 10 60 0 100 4 100 10 0 6 18 10 40 10 29 0 40 4 40 15 0 10 11 15 35 15
19 0 35 5 35 10 0 6 14 10 30 10 17 0 30 5 30 10 0 6 7 10 16 10 8 0 22 7 31
15 8 8 19 13 24 10 5 -4 9 -1 9 4 0 6 7 11 15 11 8 0 15 5 15 10 0 6 7 10 15
10 15 0 65 42 65 55 0 7 68 75 75 75 13 0 55 50 55 65 0 8 5 15 10 15 6 0 10
10 10 23 0 12 9 29 20 37 12 8 20 26 20 42 0 15 5 28 10 28 6 0 10 9 10 20 0
11 7 20 15 20 11 0 15 12 15 45 0 25 5 45 10 45 6 0 10 28 10 65 0 37 4 65 10
65 6 0 10 30 10 70 0 40 -4 70 -10 70 -6 0 -10 32 -10 75 0 43 -4 75 -10 75
-5 0 -10 16 -10 35 0 24 -5 35 -15 35 -10 0 -15 10 -15 30 0 17 -4 30 -10 30
-5 0 -10 8 -10 18 0 10 -9 24 -20 32 -11 8 -20 23 -20 33 0 16 -61 87 -75 87
-8 0 -75 68 -75 75 0 12 -29 35 -44 35 -9 0 -16 5 -16 10 0 6 -11 10 -25 10
-14 0 -25 5 -25 10 0 6 -9 10 -20 10 -11 0 -20 5 -20 10 0 6 -9 10 -20 10 -11
0 -20 5 -20 10 0 6 -13 10 -30 10 -16 0 -30 5 -30 10 0 6 -16 10 -35 10 -19 0
-35 5 -35 10 0 6 -13 10 -30 10 -20 0 -30 5 -30 15 0 11 -12 15 -45 15 -25 0
-45 5 -45 10 0 6 -32 10 -75 10 -43 0 -75 4 -75 10 0 6 -48 10 -125 10 -77 0
-125 4 -125 10 0 6 -35 10 -85 10 l-85 0 0 1085 0 1085 1960 0 1960 0 0 -1575z"/>
<path d="M9040 5440 c0 -5 -25 -10 -55 -10 -30 0 -55 -4 -55 -10 0 -5 -13 -10
-30 -10 -16 0 -30 -4 -30 -10 0 -5 -9 -10 -20 -10 -11 0 -20 -4 -20 -10 0 -5
-15 -10 -33 -10 -21 0 -38 -7 -47 -20 -8 -11 -22 -20 -32 -20 -10 0 -18 -7
-18 -15 0 -8 -9 -15 -20 -15 -11 0 -20 -4 -20 -10 0 -5 -7 -10 -15 -10 -8 0
-15 -4 -15 -10 0 -5 -7 -10 -16 -10 -8 0 -37 -22 -64 -50 -27 -27 -53 -50 -59
-50 -6 0 -11 -5 -11 -11 0 -6 -13 -24 -30 -39 -16 -15 -30 -34 -30 -42 0 -7
-9 -20 -20 -28 -11 -8 -20 -22 -20 -32 0 -10 -4 -18 -10 -18 -5 0 -10 -7 -10
-15 0 -8 -4 -15 -10 -15 -5 0 -10 -9 -10 -20 0 -11 -7 -20 -15 -20 -10 0 -15
-10 -15 -30 0 -16 -4 -30 -10 -30 -5 0 -10 -9 -10 -20 0 -11 -4 -20 -10 -20
-5 0 -10 -16 -10 -35 0 -19 -4 -35 -10 -35 -5 0 -10 -22 -10 -50 0 -27 -4 -50
-10 -50 -6 0 -10 -60 -10 -160 0 -100 4 -160 10 -160 6 0 10 -20 10 -45 0 -25
5 -45 10 -45 6 0 10 -18 10 -40 0 -22 5 -40 10 -40 6 0 10 -11 10 -25 0 -14 5
-25 10 -25 6 0 10 -9 10 -20 0 -11 7 -20 15 -20 8 0 15 -9 15 -20 0 -11 5 -20
10 -20 6 0 10 -8 10 -18 0 -10 9 -24 20 -32 11 -8 20 -24 20 -35 0 -11 9 -27
20 -35 11 -8 20 -20 20 -28 0 -13 44 -62 55 -62 8 0 35 -27 35 -35 0 -13 70
-75 85 -75 8 0 15 -4 15 -10 0 -5 6 -10 13 -10 7 0 19 -9 27 -20 8 -11 22 -20
32 -20 10 0 18 -4 18 -10 0 -5 9 -10 20 -10 11 0 20 -7 20 -15 0 -8 9 -15 20
-15 11 0 20 -4 20 -10 0 -5 16 -10 35 -10 19 0 35 -4 35 -10 0 -5 14 -10 30
-10 17 0 30 -4 30 -10 0 -5 20 -10 45 -10 25 0 45 -4 45 -10 0 -6 67 -10 180
-10 113 0 180 4 180 10 0 6 20 10 45 10 25 0 45 5 45 10 0 6 14 10 30 10 17 0
30 5 30 10 0 6 9 10 20 10 11 0 20 5 20 10 0 6 16 10 35 10 19 0 35 5 35 11 0
16 26 39 44 39 9 0 16 5 16 10 0 6 7 10 16 10 9 0 29 14 44 30 15 17 35 30 44
30 21 0 66 44 66 65 0 15 62 85 75 85 12 0 35 29 35 44 0 9 5 16 10 16 6 0 10
7 10 15 0 8 5 15 10 15 6 0 10 9 10 20 0 11 5 20 10 20 6 0 10 9 10 20 0 11 5
20 10 20 6 0 10 9 10 20 0 11 5 20 10 20 6 0 10 11 10 25 0 14 5 25 10 25 6 0
10 14 10 30 0 20 5 30 15 30 10 0 15 10 15 30 0 17 5 30 10 30 6 0 10 28 10
65 0 37 4 65 10 65 6 0 10 38 10 95 0 57 -4 95 -10 95 -6 0 -10 28 -10 65 0
37 -4 65 -10 65 -5 0 -10 18 -10 40 0 29 -4 40 -15 40 -9 0 -15 9 -15 25 0 14
-4 25 -10 25 -5 0 -10 14 -10 30 0 17 -4 30 -10 30 -5 0 -10 9 -10 20 0 11 -4
20 -10 20 -5 0 -10 10 -10 23 0 12 -9 29 -20 37 -11 8 -20 20 -20 28 0 13 -44
62 -55 62 -13 0 -35 29 -35 45 0 19 -44 65 -62 65 -8 0 -20 9 -28 20 -8 11
-19 20 -25 20 -6 0 -17 9 -25 20 -8 11 -20 20 -28 20 -16 0 -42 24 -42 39 0 6
-9 11 -20 11 -11 0 -20 5 -20 10 0 6 -11 10 -25 10 -14 0 -25 5 -25 10 0 6 -9
10 -20 10 -11 0 -20 5 -20 10 0 6 -13 10 -30 10 -16 0 -30 5 -30 10 0 6 -16
10 -35 10 -19 0 -35 5 -35 10 0 6 -22 10 -50 10 -27 0 -50 5 -50 10 0 6 -57
10 -150 10 -93 0 -150 -4 -150 -10z"/>
<path d="M17206 6254 c-3 -8 -6 -360 -6 -782 0 -422 0 -773 0 -779 0 -10 -165
-13 -790 -13 l-790 0 0 -778 c0 -592 3 -781 12 -790 9 -9 198 -12 790 -12
l778 0 2 -787 3 -788 793 -3 792 -2 0 790 0 790 783 1 c430 1 785 1 790 0 4 0
7 355 7 789 l0 790 -790 0 -790 0 0 23 c0 12 -1 369 -3 792 l-2 770 -787 2
c-696 2 -787 1 -792 -13z"/>
<path d="M31141 5985 c-89 -28 -141 -113 -141 -231 l0 -52 -60 -22 c-57 -21
-60 -24 -60 -56 l0 -34 60 0 60 0 0 -305 0 -305 75 0 75 0 0 305 0 305 90 0
90 0 0 55 0 55 -91 0 -92 0 7 55 c8 72 23 101 58 116 25 10 89 9 137 -3 8 -2
20 17 32 51 10 30 18 55 16 57 -1 1 -26 7 -55 13 -69 14 -146 13 -201 -4z"/>
<path d="M24185 5945 c-54 -53 -16 -145 60 -145 49 0 85 36 85 85 0 49 -36 85
-85 85 -25 0 -44 -8 -60 -25z"/>
<path d="M25405 5945 c-54 -53 -16 -145 60 -145 49 0 85 36 85 85 0 49 -36 85
-85 85 -25 0 -44 -8 -60 -25z"/>
<path d="M26305 5945 c-54 -53 -16 -145 60 -145 49 0 85 36 85 85 0 49 -36 85
-85 85 -25 0 -44 -8 -60 -25z"/>
<path d="M27975 5945 c-54 -53 -16 -145 60 -145 49 0 85 36 85 85 0 49 -36 85
-85 85 -25 0 -44 -8 -60 -25z"/>
<path d="M22185 5503 c-87 -236 -167 -449 -177 -475 l-18 -48 83 0 83 0 44
135 44 135 182 0 183 0 19 -52 c10 -29 32 -90 48 -135 l29 -83 82 0 83 0 -11
28 c-10 25 -157 418 -285 764 l-59 158 -85 0 -85 0 -160 -427z m316 72 l67
-195 -138 0 -139 0 46 128 c25 70 55 159 67 199 11 39 23 70 25 67 3 -3 35
-92 72 -199z"/>
<path d="M25810 5793 c-27 -80 -37 -94 -90 -118 -35 -16 -40 -22 -40 -52 0
-33 1 -33 45 -33 l45 0 0 -205 c0 -112 5 -227 11 -254 13 -62 44 -109 87 -134
42 -25 141 -33 215 -17 l57 11 0 59 0 59 -32 -10 c-18 -5 -52 -9 -76 -9 -35 0
-49 6 -73 29 l-29 29 0 221 0 221 100 0 100 0 0 55 0 55 -100 0 -100 0 0 80 0
80 -49 0 -49 0 -22 -67z"/>
<path d="M27479 5793 c-26 -82 -30 -87 -85 -115 -39 -19 -44 -26 -44 -55 0
-32 1 -33 45 -33 l45 0 0 -205 c0 -112 5 -227 11 -254 13 -62 44 -109 87 -134
42 -25 141 -33 215 -17 l57 11 0 59 0 59 -32 -10 c-18 -5 -52 -9 -76 -9 -35 0
-49 6 -73 29 l-29 29 0 221 0 221 100 0 100 0 0 55 0 55 -100 0 -100 0 0 80 0
80 -49 0 -49 0 -23 -67z"/>
<path d="M23270 5701 c-50 -16 -108 -51 -128 -77 l-19 -27 -13 51 -12 52 -59
0 -59 0 0 -360 0 -360 74 0 74 0 4 233 c3 224 4 234 28 281 32 64 63 86 131
93 70 7 121 -13 146 -59 16 -29 18 -64 21 -290 l3 -258 75 0 74 0 0 263 c0
300 -7 343 -65 402 -55 54 -190 82 -275 56z"/>
<path d="M24840 5701 c-50 -16 -108 -51 -128 -77 l-19 -27 -13 51 -12 52 -59
0 -59 0 0 -360 0 -360 74 0 74 0 4 233 c3 224 4 234 28 281 32 64 63 86 131
93 70 7 121 -13 146 -59 16 -29 18 -64 21 -290 l3 -258 75 0 74 0 0 263 c0
300 -7 343 -65 402 -55 54 -190 82 -275 56z"/>
<path d="M26815 5696 c-33 -8 -77 -21 -98 -30 l-38 -15 26 -51 c14 -27 26 -50
28 -50 1 0 34 11 72 25 156 55 245 20 261 -102 l7 -53 -59 0 c-100 0 -222 -18
-272 -40 -93 -41 -132 -99 -132 -195 0 -146 94 -224 255 -212 82 6 124 24 177
74 l36 35 14 -48 14 -49 57 -3 57 -3 0 255 c0 148 -5 277 -11 306 -13 63 -57
116 -119 143 -57 25 -193 32 -275 13z m245 -440 c0 -49 -5 -71 -23 -97 -52
-79 -192 -105 -244 -45 -27 32 -31 100 -7 134 30 44 107 68 222 71 l52 1 0
-64z"/>
<path d="M29225 5697 c-97 -32 -148 -79 -192 -172 -26 -56 -28 -69 -28 -185 0
-122 1 -127 33 -192 37 -75 72 -110 152 -147 50 -24 66 -26 175 -25 91 0 133
5 175 20 l55 19 3 64 c3 58 1 63 -15 56 -118 -51 -274 -57 -341 -12 -43 28
-76 87 -85 150 l-6 37 241 0 240 0 -4 93 c-7 149 -55 230 -163 278 -61 27
-181 35 -240 16z m175 -115 c39 -21 80 -89 80 -134 l0 -28 -160 0 c-154 0
-160 1 -160 20 0 27 26 89 48 114 41 46 132 59 192 28z"/>
<path d="M30357 5700 c-107 -27 -185 -103 -218 -212 -17 -56 -20 -88 -17 -171
6 -161 57 -251 176 -309 61 -30 74 -33 162 -33 77 1 105 5 145 23 65 30 128
93 154 152 47 110 48 272 1 376 -27 62 -93 128 -152 154 -59 25 -188 36 -251
20z m183 -132 c34 -18 51 -35 70 -73 22 -44 25 -62 25 -155 0 -90 -3 -112 -23
-152 -31 -62 -68 -88 -136 -95 -81 -8 -137 22 -170 90 -44 93 -43 237 2 326
22 44 90 81 147 81 22 0 61 -10 85 -22z"/>
<path d="M24170 5340 l0 -360 75 0 75 0 0 360 0 360 -75 0 -75 0 0 -360z"/>
<path d="M25390 5340 l0 -360 75 0 75 0 0 360 0 360 -75 0 -75 0 0 -360z"/>
<path d="M26290 5340 l0 -360 75 0 75 0 0 360 0 360 -75 0 -75 0 0 -360z"/>
<path d="M27960 5340 l0 -360 75 0 75 0 0 360 0 360 -75 0 -75 0 0 -360z"/>
<path d="M28245 5633 c14 -37 76 -200 137 -360 l111 -293 82 0 c81 0 83 1 93
28 8 22 235 616 258 675 6 16 0 18 -76 15 l-82 -3 -69 -195 c-38 -107 -82
-239 -97 -293 l-28 -98 -13 56 c-7 31 -50 163 -96 293 l-82 237 -82 3 -81 3
25 -68z"/>
<path d="M22620 3885 l0 -505 74 0 74 0 4 233 c3 224 4 234 28 281 32 64 63
86 131 93 70 7 121 -13 146 -59 16 -29 18 -64 21 -290 l3 -258 75 0 74 0 0
263 c0 302 -6 340 -67 400 -93 94 -302 87 -386 -13 -14 -16 -27 -30 -29 -30
-2 0 -2 88 0 195 l3 195 -76 0 -75 0 0 -505z"/>
<path d="M26920 3885 l0 -505 74 0 74 0 4 233 c3 224 4 234 28 281 32 64 63
86 131 93 70 7 121 -13 146 -59 16 -29 18 -64 21 -290 l3 -258 75 0 74 0 0
263 c0 302 -6 340 -67 400 -93 94 -302 87 -386 -13 -14 -16 -27 -30 -29 -30
-2 0 -2 88 0 195 l3 195 -76 0 -75 0 0 -505z"/>
<path d="M29110 3885 l0 -505 75 0 75 0 0 505 0 505 -75 0 -75 0 0 -505z"/>
<path d="M31562 4200 c2 -105 2 -190 2 -190 -1 0 -19 16 -40 35 -65 60 -171
80 -268 51 -138 -42 -202 -168 -194 -386 3 -99 8 -123 32 -175 54 -119 117
-160 246 -160 93 0 142 18 189 69 14 14 27 26 31 26 3 0 11 -20 18 -45 l12
-45 60 0 60 0 0 505 0 505 -75 0 -76 0 3 -190z m-95 -229 c30 -14 48 -32 65
-63 21 -39 23 -56 23 -173 0 -142 -10 -176 -67 -218 -33 -25 -114 -33 -162
-17 -83 27 -129 158 -108 301 24 159 123 227 249 170z"/>
<path d="M24600 3855 l0 -475 70 0 70 0 -1 273 c-1 149 -4 318 -8 375 -3 56
-4 102 -1 102 3 -1 109 -169 235 -375 l230 -375 98 0 97 0 0 475 0 475 -77 0
-76 0 5 -375 6 -375 -232 375 -231 375 -92 0 -93 0 0 -475z"/>
<path d="M22150 4193 c-27 -80 -37 -94 -90 -118 -35 -16 -40 -22 -40 -52 0
-32 1 -33 44 -33 l44 0 4 -237 c3 -219 5 -241 25 -278 11 -22 30 -48 41 -58
48 -43 150 -58 252 -36 l50 11 0 58 0 59 -32 -10 c-18 -5 -52 -9 -76 -9 -35 0
-49 6 -73 29 l-29 29 0 221 0 221 100 0 100 0 0 55 0 55 -100 0 -100 0 0 80 0
80 -49 0 -49 0 -22 -67z"/>
<path d="M26450 4193 c-27 -80 -37 -94 -90 -118 -35 -16 -40 -22 -40 -52 0
-33 1 -33 45 -33 l45 0 0 -205 c0 -112 5 -227 11 -254 13 -62 44 -109 87 -134
42 -25 141 -33 215 -17 l57 11 0 59 0 59 -32 -10 c-18 -5 -52 -9 -76 -9 -35 0
-49 6 -73 29 l-29 29 0 221 0 221 100 0 100 0 0 55 0 55 -100 0 -100 0 0 80 0
80 -49 0 -49 0 -22 -67z"/>
<path d="M23655 4097 c-97 -32 -148 -79 -192 -172 -26 -56 -28 -69 -28 -185 0
-122 1 -127 33 -192 37 -75 72 -110 152 -147 50 -24 66 -26 175 -25 91 0 133
5 175 20 l55 19 3 64 c3 58 1 63 -15 56 -118 -51 -274 -57 -341 -12 -42 27
-75 85 -86 150 l-7 37 242 0 241 0 -4 93 c-7 149 -55 230 -163 278 -61 27
-181 35 -240 16z m175 -115 c39 -21 80 -89 80 -134 l0 -28 -160 0 c-154 0
-160 1 -160 20 0 27 26 89 48 114 41 46 132 59 192 28z"/>
<path d="M25815 4097 c-97 -32 -148 -79 -192 -172 -26 -56 -28 -69 -28 -185 0
-122 1 -127 33 -192 37 -75 72 -110 152 -147 50 -24 66 -26 175 -25 91 0 133
5 175 20 l55 19 3 64 c3 58 1 63 -15 56 -118 -51 -274 -57 -341 -12 -42 27
-75 85 -86 150 l-7 37 242 0 241 0 -4 93 c-7 149 -55 230 -163 278 -61 27
-181 35 -240 16z m175 -115 c39 -21 80 -89 80 -134 l0 -28 -160 0 c-154 0
-160 1 -160 20 0 27 26 89 48 114 41 46 132 59 192 28z"/>
<path d="M27955 4097 c-97 -32 -148 -79 -192 -172 -26 -56 -28 -69 -28 -185 0
-122 1 -127 33 -192 37 -75 72 -110 152 -147 50 -24 66 -26 175 -25 91 0 133
5 175 20 l55 19 3 64 c3 58 1 63 -15 56 -124 -52 -274 -57 -341 -12 -42 27
-75 85 -86 150 l-7 37 242 0 241 0 -4 93 c-7 149 -55 230 -163 278 -61 27
-181 35 -240 16z m175 -115 c39 -21 80 -89 80 -134 l0 -28 -160 0 c-154 0
-160 1 -160 20 0 27 26 89 48 114 41 46 132 59 192 28z"/>
<path d="M28836 4100 c-42 -13 -105 -60 -131 -98 -26 -38 -28 -35 -40 51 l-6
47 -60 0 -59 0 0 -360 0 -360 74 0 75 0 3 223 c3 222 3 222 30 269 37 63 112
101 190 97 l53 -3 7 64 c4 35 5 67 2 72 -7 10 -100 9 -138 -2z"/>
<path d="M29635 4096 c-33 -8 -77 -21 -98 -30 l-38 -15 26 -51 c14 -27 26 -50
28 -50 1 0 34 11 72 25 156 55 245 20 261 -102 l7 -53 -59 0 c-95 0 -225 -20
-274 -41 -91 -40 -130 -99 -130 -194 0 -146 94 -224 255 -212 82 6 124 24 177
74 l36 35 14 -48 14 -49 57 -3 57 -3 0 255 c0 148 -5 277 -11 306 -13 63 -57
116 -119 143 -57 25 -193 32 -275 13z m245 -440 c0 -49 -5 -71 -23 -97 -52
-79 -192 -105 -244 -45 -27 32 -31 100 -7 134 30 44 107 68 222 71 l52 1 0
-64z"/>
<path d="M30550 4101 c-50 -16 -108 -51 -128 -77 l-19 -27 -13 51 -12 52 -59
0 -59 0 0 -360 0 -360 74 0 74 0 4 233 c3 224 4 234 28 281 32 64 63 86 131
93 70 7 121 -13 146 -59 16 -29 18 -64 21 -290 l3 -258 75 0 74 0 0 263 c0
300 -7 343 -65 402 -55 54 -190 82 -275 56z"/>
<path d="M32041 4094 c-120 -32 -177 -120 -150 -227 15 -63 73 -114 174 -156
156 -65 195 -93 195 -141 0 -91 -138 -116 -309 -57 l-71 25 0 -63 0 -63 48
-17 c63 -22 212 -30 287 -16 123 23 195 98 195 203 0 104 -45 153 -201 218
-113 47 -154 71 -169 100 -15 29 4 66 41 79 58 20 112 14 257 -30 8 -2 22 17
37 51 l23 55 -23 12 c-75 40 -237 53 -334 27z"/>
<path d="M24182 2600 c2 -105 2 -190 2 -190 -1 0 -19 16 -40 35 -65 60 -171
80 -268 51 -138 -42 -202 -168 -194 -386 3 -99 8 -123 32 -175 54 -119 117
-160 246 -160 93 0 142 18 189 69 14 14 27 26 31 26 3 0 11 -20 18 -45 l12
-45 60 0 60 0 0 505 0 505 -75 0 -76 0 3 -190z m-92 -232 c71 -37 85 -76 85
-233 0 -142 -10 -176 -67 -218 -33 -25 -114 -33 -162 -17 -83 27 -129 158
-108 301 24 161 128 230 252 167z"/>
<path d="M25193 2725 c-202 -55 -307 -196 -320 -430 -16 -289 99 -471 326
-516 71 -14 218 -7 296 14 l50 13 3 67 c2 37 1 67 -1 67 -2 0 -39 -9 -82 -20
-204 -52 -347 3 -405 155 -34 87 -34 264 -1 349 64 162 201 220 387 162 47
-15 88 -26 90 -24 2 2 15 30 29 61 l25 58 -37 15 c-100 42 -262 55 -360 29z"/>
<path d="M22120 2255 l0 -475 75 0 75 0 0 190 0 190 78 0 77 -1 113 -189 113
-190 89 0 89 0 -88 138 c-48 75 -109 170 -134 209 l-47 73 38 19 c92 48 141
128 142 231 0 78 -11 121 -45 170 -57 82 -157 110 -402 110 l-173 0 0 -475z
m355 334 c21 -6 54 -26 72 -44 30 -30 33 -39 33 -91 0 -117 -49 -156 -207
-162 l-103 -4 0 156 0 156 83 0 c45 0 100 -5 122 -11z"/>
<path d="M23135 2497 c-97 -32 -148 -79 -192 -172 -26 -56 -28 -69 -28 -185 0
-122 1 -127 33 -192 37 -75 72 -110 152 -147 50 -24 66 -26 175 -25 91 0 133
5 175 20 l55 19 3 64 c3 58 1 63 -15 56 -118 -51 -274 -57 -341 -12 -42 27
-75 85 -86 150 l-7 37 242 0 241 0 -4 93 c-7 149 -55 230 -163 278 -61 27
-181 35 -240 16z m175 -115 c39 -21 80 -89 80 -134 l0 -28 -160 0 c-154 0
-160 1 -160 20 0 27 26 89 48 114 41 46 132 59 192 28z"/>
<path d="M26036 2500 c-42 -13 -105 -60 -131 -98 -26 -38 -28 -35 -40 51 l-6
47 -60 0 -59 0 0 -360 0 -360 74 0 75 0 3 223 c3 222 3 222 30 269 37 63 112
101 190 97 l53 -3 7 64 c4 35 5 67 2 72 -7 10 -100 9 -138 -2z"/>
<path d="M26517 2500 c-107 -27 -185 -103 -218 -212 -17 -56 -20 -88 -17 -171
6 -161 57 -251 176 -309 61 -30 74 -33 162 -33 77 1 105 5 145 23 65 30 128
93 154 152 47 110 48 272 1 376 -27 62 -93 128 -152 154 -59 25 -188 36 -251
20z m183 -132 c34 -18 51 -35 70 -73 22 -44 25 -62 25 -155 0 -90 -3 -112 -23
-152 -31 -62 -68 -88 -136 -95 -81 -8 -137 22 -170 90 -44 93 -43 237 2 326
22 44 90 81 147 81 22 0 61 -10 85 -22z"/>
<path d="M27241 2494 c-120 -32 -177 -120 -150 -227 15 -63 73 -114 174 -156
156 -65 195 -93 195 -141 0 -91 -138 -116 -309 -57 l-71 25 0 -63 0 -63 48
-17 c63 -22 212 -30 287 -16 123 23 195 98 195 203 0 104 -45 153 -201 218
-113 47 -154 71 -169 100 -15 29 4 66 41 79 58 20 112 14 257 -30 8 -2 22 17
37 51 l23 55 -23 12 c-75 40 -237 53 -334 27z"/>
<path d="M27881 2493 c-107 -32 -165 -123 -141 -223 17 -69 65 -111 190 -165
56 -25 118 -54 136 -66 60 -37 57 -109 -6 -142 -48 -25 -161 -18 -258 16 l-72
25 0 -63 0 -63 48 -17 c63 -22 212 -30 287 -16 123 23 195 98 195 203 0 99
-47 154 -176 208 -175 72 -214 103 -195 152 6 15 23 30 42 37 58 20 112 14
257 -30 8 -2 22 17 37 51 l23 55 -23 12 c-77 41 -248 54 -344 26z"/>
</g>
</svg>
